<svg width="34" height="62" viewBox="0 0 34 62" fill="none" xmlns="http://www.w3.org/2000/svg">
<mask id="path-1-outside-1_51_4" maskUnits="userSpaceOnUse" x="1" y="4" width="20" height="24" fill="black">
<rect fill="white" x="1" y="4" width="20" height="24"/>
<path d="M2.67 6.09H3.87L11.16 18.99L18.42 6.09H19.53V26.97H2.67V6.09ZM3.78 25.89H18.42V8.34L11.67 20.22H10.62L3.78 8.16V25.89Z"/>
</mask>
<path d="M2.67 6.09H3.87L11.16 18.99L18.42 6.09H19.53V26.97H2.67V6.09ZM3.78 25.89H18.42V8.34L11.67 20.22H10.62L3.78 8.16V25.89Z" fill="#679258"/>
<path d="M2.67 6.09V5.09H1.67V6.09H2.67ZM3.87 6.09L4.7406 5.59801L4.45352 5.09H3.87V6.09ZM11.16 18.99L10.2894 19.482L11.1618 21.0257L12.0315 19.4805L11.16 18.99ZM18.42 6.09V5.09H17.8353L17.5485 5.59955L18.42 6.09ZM19.53 6.09H20.53V5.09H19.53V6.09ZM19.53 26.97V27.97H20.53V26.97H19.53ZM2.67 26.97H1.67V27.97H2.67V26.97ZM3.78 25.89H2.78V26.89H3.78V25.89ZM18.42 25.89V26.89H19.42V25.89H18.42ZM18.42 8.34H19.42V4.55575L17.5505 7.84599L18.42 8.34ZM11.67 20.22V21.22H12.252L12.5395 20.714L11.67 20.22ZM10.62 20.22L9.75016 20.7133L10.0375 21.22H10.62V20.22ZM3.78 8.16L4.64984 7.66666L2.78 4.36984V8.16H3.78ZM2.67 6.09V7.09H3.87V6.09V5.09H2.67V6.09ZM3.87 6.09L2.9994 6.58199L10.2894 19.482L11.16 18.99L12.0306 18.498L4.7406 5.59801L3.87 6.09ZM11.16 18.99L12.0315 19.4805L19.2915 6.58045L18.42 6.09L17.5485 5.59955L10.2885 18.4995L11.16 18.99ZM18.42 6.09V7.09H19.53V6.09V5.09H18.42V6.09ZM19.53 6.09H18.53V26.97H19.53H20.53V6.09H19.53ZM19.53 26.97V25.97H2.67V26.97V27.97H19.53V26.97ZM2.67 26.97H3.67V6.09H2.67H1.67V26.97H2.67ZM3.78 25.89V26.89H18.42V25.89V24.89H3.78V25.89ZM18.42 25.89H19.42V8.34H18.42H17.42V25.89H18.42ZM18.42 8.34L17.5505 7.84599L10.8005 19.726L11.67 20.22L12.5395 20.714L19.2895 8.83401L18.42 8.34ZM11.67 20.22V19.22H10.62V20.22V21.22H11.67V20.22ZM10.62 20.22L11.4898 19.7267L4.64984 7.66666L3.78 8.16L2.91016 8.65334L9.75016 20.7133L10.62 20.22ZM3.78 8.16H2.78V25.89H3.78H4.78V8.16H3.78Z" fill="#679258" mask="url(#path-1-outside-1_51_4)"/>
<mask id="path-3-outside-2_51_4" maskUnits="userSpaceOnUse" x="12" y="14" width="22" height="32" fill="black">
<rect fill="white" x="12" y="14" width="22" height="32"/>
<path d="M13 39.3C13 38.3 13.5 37.8 14.5 37.8C14.9 37.8 15.3833 37.95 15.95 38.25C16.55 38.5167 17.15 38.8 17.75 39.1C18.35 39.3667 18.75 39.55 18.95 39.65C19.1833 39.75 19.5667 39.9167 20.1 40.15C20.6667 40.3833 21.0833 40.55 21.35 40.65C21.6167 40.75 21.9833 40.9 22.45 41.1C22.95 41.2667 23.3667 41.4 23.7 41.5C24.0333 41.5667 24.4 41.65 24.8 41.75C25.5 41.9167 26.2333 42 27 42C27.8 42 28.5 41.7667 29.1 41.3C29.7 40.8333 30 40.25 30 39.55C30 38.85 29.75 36.4167 29.25 32.25C28.75 28.0833 28.5 25 28.5 23C28.5 21 28.8333 19.0667 29.5 17.2C29.5667 16.9 29.7333 16.5833 30 16.25C30.3 15.8833 30.6333 15.7 31 15.7C32 15.7 32.5 16.2 32.5 17.2C32.5 17.3667 32.4333 17.65 32.3 18.05C31.7667 19.65 31.5 21.35 31.5 23.15C31.5 24.9167 31.75 27.9 32.25 32.1C32.75 36.3 33 38.7667 33 39.5C33 41.0333 32.4 42.3333 31.2 43.4C30 44.4667 28.6 45 27 45C25.4667 45 24.1333 44.8 23 44.4C21.9 44 21.1667 43.75 20.8 43.65C20.4667 43.5167 19.95 43.3 19.25 43C18.55 42.7 18.0833 42.5 17.85 42.4C17.65 42.3 17.1833 42.0833 16.45 41.75C15.7167 41.4167 15.1833 41.1833 14.85 41.05C14.55 40.8833 14.2667 40.7333 14 40.6C13.3333 40.2667 13 39.8333 13 39.3Z"/>
</mask>
<path d="M13 39.3C13 38.3 13.5 37.8 14.5 37.8C14.9 37.8 15.3833 37.95 15.95 38.25C16.55 38.5167 17.15 38.8 17.75 39.1C18.35 39.3667 18.75 39.55 18.95 39.65C19.1833 39.75 19.5667 39.9167 20.1 40.15C20.6667 40.3833 21.0833 40.55 21.35 40.65C21.6167 40.75 21.9833 40.9 22.45 41.1C22.95 41.2667 23.3667 41.4 23.7 41.5C24.0333 41.5667 24.4 41.65 24.8 41.75C25.5 41.9167 26.2333 42 27 42C27.8 42 28.5 41.7667 29.1 41.3C29.7 40.8333 30 40.25 30 39.55C30 38.85 29.75 36.4167 29.25 32.25C28.75 28.0833 28.5 25 28.5 23C28.5 21 28.8333 19.0667 29.5 17.2C29.5667 16.9 29.7333 16.5833 30 16.25C30.3 15.8833 30.6333 15.7 31 15.7C32 15.7 32.5 16.2 32.5 17.2C32.5 17.3667 32.4333 17.65 32.3 18.05C31.7667 19.65 31.5 21.35 31.5 23.15C31.5 24.9167 31.75 27.9 32.25 32.1C32.75 36.3 33 38.7667 33 39.5C33 41.0333 32.4 42.3333 31.2 43.4C30 44.4667 28.6 45 27 45C25.4667 45 24.1333 44.8 23 44.4C21.9 44 21.1667 43.75 20.8 43.65C20.4667 43.5167 19.95 43.3 19.25 43C18.55 42.7 18.0833 42.5 17.85 42.4C17.65 42.3 17.1833 42.0833 16.45 41.75C15.7167 41.4167 15.1833 41.1833 14.85 41.05C14.55 40.8833 14.2667 40.7333 14 40.6C13.3333 40.2667 13 39.8333 13 39.3Z" fill="#679258"/>
<path d="M15.95 38.25L15.4821 39.1338L15.5125 39.1499L15.5439 39.1638L15.95 38.25ZM17.75 39.1L17.3028 39.9944L17.3231 40.0046L17.3439 40.0138L17.75 39.1ZM18.95 39.65L18.5028 40.5444L18.5291 40.5576L18.5561 40.5691L18.95 39.65ZM20.1 40.15L19.6992 41.0662L19.7092 41.0705L19.7193 41.0747L20.1 40.15ZM21.35 40.65L21.7011 39.7137L21.7011 39.7137L21.35 40.65ZM22.45 41.1L22.0561 42.0191L22.0943 42.0355L22.1338 42.0487L22.45 41.1ZM23.7 41.5L23.4127 42.4578L23.4577 42.4714L23.5039 42.4806L23.7 41.5ZM24.8 41.75L24.5575 42.7202L24.5684 42.7228L24.8 41.75ZM29.1 41.3L29.7139 42.0894L29.7139 42.0894L29.1 41.3ZM29.25 32.25L28.2571 32.3691L28.2571 32.3691L29.25 32.25ZM29.5 17.2L30.4417 17.5363L30.4627 17.4777L30.4762 17.4169L29.5 17.2ZM30 16.25L29.226 15.6167L29.2191 15.6253L30 16.25ZM32.3 18.05L33.2487 18.3662L33.2487 18.3662L32.3 18.05ZM32.25 32.1L31.257 32.2182L31.257 32.2182L32.25 32.1ZM31.2 43.4L30.5356 42.6526L30.5356 42.6526L31.2 43.4ZM23 44.4L22.6582 45.3398L22.6672 45.343L23 44.4ZM20.8 43.65L20.4286 44.5785L20.4817 44.5997L20.5369 44.6148L20.8 43.65ZM19.25 43L19.6439 42.0809L19.6439 42.0809L19.25 43ZM17.85 42.4L17.4028 43.2944L17.4291 43.3076L17.4561 43.3191L17.85 42.4ZM16.45 41.75L16.8638 40.8396L16.45 41.75ZM14.85 41.05L14.3644 41.9242L14.4198 41.9549L14.4786 41.9785L14.85 41.05ZM14 40.6L14.4472 39.7056L14.4472 39.7056L14 40.6ZM13 39.3H14C14 39.1303 14.0216 39.0226 14.0424 38.96C14.0617 38.9022 14.0793 38.8849 14.0821 38.8821C14.0849 38.8793 14.1022 38.8617 14.16 38.8424C14.2226 38.8216 14.3303 38.8 14.5 38.8V37.8V36.8C13.8459 36.8 13.1716 36.9642 12.6679 37.4679C12.1642 37.9716 12 38.6459 12 39.3H13ZM14.5 37.8V38.8C14.6671 38.8 14.9818 38.8689 15.4821 39.1338L15.95 38.25L16.4179 37.3662C15.7849 37.0311 15.1329 36.8 14.5 36.8V37.8ZM15.95 38.25L15.5439 39.1638C16.1297 39.4242 16.716 39.7011 17.3028 39.9944L17.75 39.1L18.1972 38.2056C17.584 37.8989 16.9703 37.6091 16.3561 37.3362L15.95 38.25ZM17.75 39.1L17.3439 40.0138C17.947 40.2819 18.3264 40.4562 18.5028 40.5444L18.95 39.65L19.3972 38.7556C19.1736 38.6438 18.753 38.4515 18.1561 38.1862L17.75 39.1ZM18.95 39.65L18.5561 40.5691C18.7857 40.6675 19.166 40.8329 19.6992 41.0662L20.1 40.15L20.5008 39.2338C19.9673 39.0004 19.581 38.8325 19.3439 38.7309L18.95 39.65ZM20.1 40.15L19.7193 41.0747C20.2872 41.3086 20.7163 41.4804 20.9989 41.5863L21.35 40.65L21.7011 39.7137C21.4503 39.6196 21.0461 39.4581 20.4808 39.2253L20.1 40.15ZM21.35 40.65L20.9989 41.5863C21.2442 41.6783 21.5945 41.8213 22.0561 42.0191L22.45 41.1L22.8439 40.1809C22.3722 39.9787 21.9891 39.8217 21.7011 39.7137L21.35 40.65ZM22.45 41.1L22.1338 42.0487C22.639 42.2171 23.0661 42.3539 23.4127 42.4578L23.7 41.5L23.9873 40.5422C23.6672 40.4461 23.261 40.3162 22.7662 40.1513L22.45 41.1ZM23.7 41.5L23.5039 42.4806C23.8188 42.5436 24.1697 42.6232 24.5575 42.7201L24.8 41.75L25.0425 40.7799C24.6303 40.6768 24.2479 40.5898 23.8961 40.5194L23.7 41.5ZM24.8 41.75L24.5684 42.7228C25.349 42.9087 26.1604 43 27 43V42V41C26.3063 41 25.651 40.9247 25.0316 40.7772L24.8 41.75ZM27 42V43C28.0099 43 28.9288 42.7 29.7139 42.0894L29.1 41.3L28.4861 40.5106C28.0712 40.8333 27.5901 41 27 41V42ZM29.1 41.3L29.7139 42.0894C30.5335 41.452 31 40.5879 31 39.55H30H29C29 39.9121 28.8665 40.2147 28.4861 40.5106L29.1 41.3ZM30 39.55H31C31 38.7735 30.7384 36.2603 30.2429 32.1309L29.25 32.25L28.2571 32.3691C28.7616 36.573 29 38.9265 29 39.55H30ZM29.25 32.25L30.2429 32.1309C29.7437 27.9706 29.5 24.9369 29.5 23H28.5H27.5C27.5 25.0631 27.7563 28.196 28.2571 32.3691L29.25 32.25ZM28.5 23H29.5C29.5 21.1136 29.814 19.2941 30.4417 17.5363L29.5 17.2L28.5583 16.8637C27.8527 18.8393 27.5 20.8864 27.5 23H28.5ZM29.5 17.2L30.4762 17.4169C30.4994 17.3123 30.5747 17.1324 30.7809 16.8747L30 16.25L29.2191 15.6253C28.892 16.0342 28.6339 16.4877 28.5238 16.9831L29.5 17.2ZM30 16.25L30.774 16.8832C30.8622 16.7754 30.926 16.7307 30.9569 16.7137C30.9817 16.7001 30.9916 16.7 31 16.7V15.7V14.7C30.2501 14.7 29.6561 15.0912 29.226 15.6168L30 16.25ZM31 15.7V16.7C31.1697 16.7 31.2774 16.7216 31.34 16.7424C31.3978 16.7617 31.4151 16.7793 31.4179 16.7821C31.4207 16.7849 31.4383 16.8022 31.4576 16.86C31.4784 16.9226 31.5 17.0303 31.5 17.2H32.5H33.5C33.5 16.5459 33.3358 15.8716 32.8321 15.3679C32.3284 14.8642 31.6541 14.7 31 14.7V15.7ZM32.5 17.2H31.5C31.5 17.1696 31.5033 17.1951 31.4766 17.3085C31.4525 17.4109 31.4123 17.551 31.3513 17.7338L32.3 18.05L33.2487 18.3662C33.3796 17.9736 33.5 17.5484 33.5 17.2H32.5ZM32.3 18.05L31.3513 17.7338C30.7818 19.4424 30.5 21.2498 30.5 23.15H31.5H32.5C32.5 21.4502 32.7516 19.8576 33.2487 18.3662L32.3 18.05ZM31.5 23.15H30.5C30.5 24.982 30.757 28.0179 31.257 32.2182L32.25 32.1L33.243 31.9818C32.743 27.7821 32.5 24.8513 32.5 23.15H31.5ZM32.25 32.1L31.257 32.2182C31.7613 36.4539 32 38.8423 32 39.5H33H34C34 38.691 33.7387 36.1461 33.243 31.9818L32.25 32.1ZM33 39.5H32C32 40.7328 31.5336 41.7655 30.5356 42.6526L31.2 43.4L31.8644 44.1474C33.2664 42.9011 34 41.3339 34 39.5H33ZM31.2 43.4L30.5356 42.6526C29.518 43.5572 28.3541 44 27 44V45V46C28.8459 46 30.482 45.3762 31.8644 44.1474L31.2 43.4ZM27 45V44C25.5503 44 24.3344 43.8105 23.3328 43.457L23 44.4L22.6672 45.343C23.9323 45.7895 25.3831 46 27 46V45ZM23 44.4L23.3417 43.4602C22.249 43.0628 21.4765 42.798 21.0631 42.6852L20.8 43.65L20.5369 44.6148C20.8568 44.702 21.551 44.9372 22.6583 45.3398L23 44.4ZM20.8 43.65L21.1714 42.7215C20.8501 42.593 20.3428 42.3804 19.6439 42.0809L19.25 43L18.8561 43.9191C19.5572 44.2196 20.0833 44.4403 20.4286 44.5785L20.8 43.65ZM19.25 43L19.6439 42.0809C18.9439 41.7809 18.4773 41.5809 18.2439 41.4809L17.85 42.4L17.4561 43.3191C17.6894 43.4191 18.1561 43.6191 18.8561 43.9191L19.25 43ZM17.85 42.4L18.2972 41.5056C18.0772 41.3956 17.5921 41.1707 16.8638 40.8396L16.45 41.75L16.0362 42.6604C16.7746 42.996 17.2228 43.2044 17.4028 43.2944L17.85 42.4ZM16.45 41.75L16.8638 40.8396C16.1293 40.5058 15.5779 40.2641 15.2214 40.1215L14.85 41.05L14.4786 41.9785C14.7888 42.1026 15.3041 42.3276 16.0362 42.6604L16.45 41.75ZM14.85 41.05L15.3356 40.1758C15.0248 40.0032 14.7286 39.8463 14.4472 39.7056L14 40.6L13.5528 41.4944C13.8047 41.6204 14.0752 41.7635 14.3644 41.9242L14.85 41.05ZM14 40.6L14.4472 39.7056C14.2026 39.5832 14.09 39.4768 14.0426 39.4153C14.0068 39.3687 14 39.3402 14 39.3H13H12C12 40.3587 12.7021 41.0691 13.5528 41.4944L14 40.6Z" fill="#679258" mask="url(#path-3-outside-2_51_4)"/>
</svg>
