<svg width="63" height="63" viewBox="0 0 63 63" fill="none" xmlns="http://www.w3.org/2000/svg">
<circle cx="31.5" cy="31.5" r="31.5" fill="#679258"/>
<path d="M14.89 42V22.68H18.25L24.37 35.19L30.46 22.68H33.82V42H30.58V27.99L25.36 38.67H23.38L18.13 27.99V42H14.89ZM40.5951 42.3C38.9551 42.3 37.5551 42.07 36.3951 41.61V38.85C36.8751 39.05 37.4351 39.22 38.0751 39.36C38.7351 39.48 39.3851 39.54 40.0251 39.54C41.3651 39.54 42.2951 39.27 42.8151 38.73C43.3551 38.17 43.6251 37.28 43.6251 36.06V22.68H46.8951V36.6C46.8951 38.44 46.3651 39.85 45.3051 40.83C44.2651 41.81 42.6951 42.3 40.5951 42.3Z" fill="white"/>
</svg>
