<svg width="73" height="73" viewBox="0 0 73 73" fill="none" xmlns="http://www.w3.org/2000/svg">
<path d="M57.7917 9.125C60.1192 9.12487 62.3588 10.0142 64.0522 11.6109C65.7457 13.2077 66.7649 15.3912 66.9015 17.7147L66.9167 18.25V54.75C66.9168 57.0775 66.0275 59.3171 64.4308 61.0105C62.834 62.704 60.6505 63.7232 58.327 63.8598L57.7917 63.875H24.6619C23.2137 63.8747 21.7865 63.5297 20.4981 62.8685C19.2097 62.2074 18.0971 61.2491 17.2524 60.0729L16.9239 59.5863L4.51387 39.7242C3.95747 38.8344 3.64069 37.8159 3.59432 36.7675C3.54795 35.7191 3.77357 34.6766 4.24925 33.7412L4.51083 33.2758L16.9239 13.4137C17.6914 12.1855 18.7402 11.1576 19.9837 10.415C21.2271 9.67242 22.6295 9.23649 24.0748 9.14325L24.6619 9.125H57.7917ZM57.7917 15.2083H24.6619C24.212 15.2085 23.7678 15.3084 23.3612 15.5009C22.9547 15.6934 22.5959 15.9737 22.3107 16.3216L22.0825 16.6379L9.67254 36.5L22.0825 56.3621C22.3209 56.7437 22.641 57.0677 23.0197 57.3107C23.3984 57.5537 23.8263 57.7097 24.2725 57.7673L24.6619 57.7917H57.7917C58.5367 57.7916 59.2558 57.518 59.8125 57.023C60.3692 56.5279 60.7249 55.8458 60.8121 55.1059L60.8334 54.75V18.25C60.8333 17.505 60.5597 16.7859 60.0647 16.2292C59.5696 15.6725 58.8875 15.3168 58.1476 15.2296L57.7917 15.2083ZM33.0903 25.7447L39.5387 32.1991L45.9931 25.7447C46.2757 25.4623 46.6111 25.2383 46.9803 25.0855C47.3495 24.9328 47.7451 24.8542 48.1446 24.8544C48.5441 24.8545 48.9397 24.9333 49.3088 25.0864C49.6778 25.2394 50.0131 25.4636 50.2955 25.7462C50.5779 26.0288 50.8019 26.3642 50.9547 26.7334C51.1074 27.1026 51.186 27.4982 51.1858 27.8977C51.1857 28.2972 51.1069 28.6928 50.9538 29.0619C50.8008 29.4309 50.5766 29.7662 50.294 30.0486L43.8457 36.5L50.294 42.9514C50.8647 43.5217 51.1855 44.2954 51.1858 45.1023C51.1861 45.9091 50.8659 46.6831 50.2955 47.2538C49.7252 47.8246 48.9515 48.1454 48.1446 48.1456C47.3378 48.1459 46.5638 47.8257 45.9931 47.2553L39.5417 40.8009L33.0903 47.2553C32.5196 47.8261 31.7455 48.1467 30.9384 48.1467C30.1312 48.1467 29.3571 47.8261 28.7864 47.2553C28.2156 46.6846 27.895 45.9105 27.895 45.1034C27.895 44.2962 28.2156 43.5221 28.7864 42.9514L35.2408 36.5L28.7864 30.0486C28.2156 29.4779 27.895 28.7038 27.895 27.8966C27.895 27.0895 28.2156 26.3154 28.7864 25.7447C29.3571 25.1739 30.1312 24.8533 30.9384 24.8533C31.7455 24.8533 32.5196 25.1739 33.0903 25.7447Z" fill="black"/>
</svg>
