<svg width="41" height="36" viewBox="0 0 41 36" fill="none" xmlns="http://www.w3.org/2000/svg">
<path d="M37.1562 33.4286H3.84375C1.71688 33.4286 0 31.7057 0 29.5714V6.42855C0 4.29427 1.71688 2.57141 3.84375 2.57141H37.1562C39.2831 2.57141 41 4.29427 41 6.42855V29.5714C41 31.7057 39.2831 33.4286 37.1562 33.4286ZM3.84375 5.14284C3.12625 5.14284 2.5625 5.70855 2.5625 6.42855V29.5714C2.5625 30.2914 3.12625 30.8571 3.84375 30.8571H37.1562C37.8737 30.8571 38.4375 30.2914 38.4375 29.5714V6.42855C38.4375 5.70855 37.8737 5.14284 37.1562 5.14284H3.84375Z" fill="black"/>
<path d="M20.5 23.04C18.7063 23.04 17.0663 22.32 15.8363 21.0086L2.38313 6.66003C1.89625 6.14574 1.92188 5.32288 2.43438 4.83431C2.94688 4.34574 3.76688 4.37145 4.25375 4.88574L17.7069 19.2343C19.1675 20.8029 21.8325 20.8029 23.2931 19.2343L36.7463 4.91145C37.2331 4.39717 38.0531 4.37145 38.5656 4.86003C39.0781 5.3486 39.1038 6.17145 38.6169 6.68574L25.1638 21.0343C23.9338 22.3457 22.2938 23.0657 20.5 23.0657V23.04Z" fill="black"/>
</svg>
