<svg width="106" height="106" viewBox="0 0 106 106" fill="none" xmlns="http://www.w3.org/2000/svg">
<path d="M39.75 13.25H53V39.75H39.75C36.2359 39.75 32.8657 38.354 30.3808 35.8692C27.896 33.3843 26.5 30.0141 26.5 26.5C26.5 22.9859 27.896 19.6157 30.3808 17.1308C32.8657 14.646 36.2359 13.25 39.75 13.25Z" fill="#F4511E"/>
<path d="M66.25 39.75H53V13.25H66.25C69.7641 13.25 73.1343 14.646 75.6192 17.1308C78.104 19.6157 79.5 22.9859 79.5 26.5C79.5 30.0141 78.104 33.3843 75.6192 35.8692C73.1343 38.354 69.7641 39.75 66.25 39.75Z" fill="#FF8A65"/>
<path d="M53 53C53 60.3178 58.9322 66.25 66.25 66.25C73.5678 66.25 79.5 60.3178 79.5 53C79.5 45.6822 73.5678 39.75 66.25 39.75C58.9322 39.75 53 45.6822 53 53Z" fill="#29B6F6"/>
<path d="M39.75 39.75H53V66.25H39.75C36.2359 66.25 32.8657 64.854 30.3808 62.3692C27.896 59.8843 26.5 56.5141 26.5 53C26.5 49.4859 27.896 46.1157 30.3808 43.6308C32.8657 41.146 36.2359 39.75 39.75 39.75Z" fill="#7C4DFF"/>
<path d="M39.75 66.25H53V79.5C53 83.0141 51.604 86.3843 49.1192 88.8692C46.6343 91.354 43.2641 92.75 39.75 92.75C36.2359 92.75 32.8657 91.354 30.3808 88.8692C27.896 86.3843 26.5 83.0141 26.5 79.5C26.5 75.9859 27.896 72.6157 30.3808 70.1308C32.8657 67.646 36.2359 66.25 39.75 66.25Z" fill="#00E676"/>
</svg>
