<svg width="31" height="33" viewBox="0 0 31 33" fill="none" xmlns="http://www.w3.org/2000/svg">
<path d="M21.625 31.875C21.625 31.875 21.625 27.9971 21.625 26.75C21.625 25.6738 21.8813 23.4017 20.7708 22.4792C23.1454 22.2571 25.0075 21.4883 26.75 19.9167C28.4925 18.345 29.3125 15.9704 29.3125 12.2292C29.3125 9.66667 28.8854 7.95833 27.6042 6.25C28.0996 4.9175 28.185 2.83333 27.6042 1.125C24.9392 1.125 22.5304 2.95292 21.625 3.6875C20.9588 3.51667 19.3529 2.83333 16.5 2.83333C13.6471 2.83333 12.0413 3.51667 11.375 3.6875C10.4696 2.95292 8.06083 1.125 5.39583 1.125C4.815 2.83333 4.90042 4.9175 5.39583 6.25C4.11458 7.95833 3.6875 9.66667 3.6875 12.2292C3.6875 15.9704 4.5075 18.345 6.25 19.9167C7.9925 21.4883 9.85458 22.2571 12.2292 22.4792C11.1188 23.4017 11.375 25.6738 11.375 26.75C11.375 27.9971 11.375 31.875 11.375 31.875" stroke="#3D3D3D" stroke-width="2" stroke-linecap="round" stroke-linejoin="round"/>
<path d="M11.375 28.4583C8.96625 28.4583 6.52333 27.5016 5.07125 26.4254C3.63625 25.3491 3.20917 23.5895 1.125 22.4791" stroke="#3D3D3D" stroke-width="2" stroke-linecap="round" stroke-linejoin="round"/>
</svg>
