<svg width="49" height="49" viewBox="0 0 49 49" fill="none" xmlns="http://www.w3.org/2000/svg">
<path d="M12.8931 12.6093C12.3827 11.3068 12.4031 9.81838 12.6298 8.45659C14.1895 8.92527 15.6546 9.66474 16.9581 10.6412C17.5298 11.0781 18.279 11.219 18.9773 11.0087C20.7687 10.4714 22.6297 10.2017 24.5 10.2083C26.462 10.2083 28.3261 10.4942 30.0186 11.0066C30.7169 11.219 31.4662 11.076 32.0358 10.6391C33.3387 9.66291 34.8031 8.92345 36.3621 8.45454C36.5887 9.81634 36.6071 11.3047 36.1008 12.6053C35.7945 13.3893 35.9476 14.2917 36.5254 14.9328C38.0036 16.5722 38.7917 18.4567 38.7917 20.4167C38.7917 24.7328 34.7696 28.9651 28.3098 30.2534C26.6928 30.576 26.0619 32.6115 27.2991 33.7773C28.0933 34.5246 28.5833 35.5781 28.5833 36.75V42.875C28.5833 43.4165 28.7984 43.9358 29.1813 44.3187C29.5642 44.7016 30.0835 44.9167 30.625 44.9167C31.1665 44.9167 31.6858 44.7016 32.0687 44.3187C32.4516 43.9358 32.6667 43.4165 32.6667 42.875V36.75C32.6667 35.5863 32.4217 34.4797 31.9848 33.4772C38.1445 31.3396 42.875 26.5274 42.875 20.4167C42.875 17.6665 41.8868 15.139 40.2474 13.0218C40.6761 11.3476 40.6373 9.66117 40.474 8.36675C40.329 7.20709 40.1269 5.68809 39.3103 4.78159C38.0955 3.43613 36.0844 4.22829 34.6553 4.71625C33.1214 5.23324 31.6626 5.95063 30.3167 6.84979C28.4161 6.36404 26.4617 6.12051 24.5 6.125C22.4706 6.125 20.5126 6.38021 18.6792 6.85184C17.3333 5.95267 15.8745 5.23528 14.3407 4.71829C12.9115 4.22829 10.8984 3.43613 9.68363 4.78159C8.85063 5.70442 8.67709 7.10296 8.52805 8.29121L8.51784 8.36879C8.35451 9.66525 8.31776 11.3537 8.74651 13.0299C7.11317 15.1451 6.12501 17.6686 6.12501 20.4167C6.12501 26.5253 10.8555 31.3396 17.0153 33.4772C16.5702 34.4968 16.3381 35.5966 16.3333 36.7092L15.9903 36.7786C14.5265 36.9807 13.5893 36.799 12.9523 36.5295C11.4007 35.8721 10.6003 34.2163 9.62442 32.9505C9.01601 32.1644 8.12992 31.1824 6.77017 30.7291C6.51573 30.6444 6.24709 30.6106 5.9796 30.6297C5.7121 30.6488 5.45098 30.7204 5.21116 30.8404C4.72681 31.0828 4.35857 31.5076 4.18746 32.0215C4.01635 32.5354 4.05639 33.0962 4.29875 33.5805C4.54112 34.0649 4.96597 34.4331 5.47984 34.6042C6.61909 34.984 7.40717 36.9358 8.12992 37.8015C8.89146 38.7161 9.90413 39.6716 11.3558 40.2882C12.7482 40.8803 14.3835 41.0906 16.3333 40.8517V42.875C16.3333 43.4165 16.5484 43.9358 16.9313 44.3187C17.3142 44.7016 17.8335 44.9167 18.375 44.9167C18.9165 44.9167 19.4358 44.7016 19.8187 44.3187C20.2016 43.9358 20.4167 43.4165 20.4167 42.875V36.75C20.4167 35.5781 20.9067 34.5246 21.7009 33.7773C22.9402 32.6095 22.3073 30.576 20.6903 30.2534C14.2284 28.9651 10.2083 24.7328 10.2083 20.4167C10.2083 18.4608 10.9944 16.5763 12.4705 14.9368C13.0483 14.2958 13.1994 13.3933 12.8931 12.6093Z" fill="black"/>
</svg>
