<svg width="86" height="90" viewBox="0 0 86 90" fill="none" xmlns="http://www.w3.org/2000/svg">
<path d="M5.40591 3.87468L55.124 0.204157C61.231 -0.319724 62.8002 0.0335601 66.6399 2.8239L82.5106 14.0007C85.1286 15.9226 86 16.4468 86 18.5396V79.836C86 83.6775 84.6042 85.9496 79.7193 86.2972L21.9838 89.7911C18.3177 89.9647 16.5718 89.4408 14.6519 86.9947L2.96498 71.8032C0.868735 69.0068 0 66.9136 0 64.4675V9.98259C0 6.84199 1.39582 4.22225 5.40591 3.87468Z" fill="white"/>
<path d="M55.124 0.204157L5.40591 3.87468C1.39582 4.22225 0 6.84199 0 9.98259V64.4679C0 66.914 0.868398 69.0068 2.96498 71.8032L14.6519 86.9947C16.5718 89.4408 18.3177 89.9647 21.9838 89.7911L79.7193 86.2972C84.6012 85.9496 86 83.6775 86 79.836V18.5396C86 16.5546 85.2152 15.9827 82.906 14.2882L82.5079 14.0007L66.6399 2.8239C62.8002 0.0335601 61.2313 -0.319724 55.124 0.204157ZM23.2895 17.5365C18.5753 17.8539 17.506 17.9258 14.8286 15.749L8.02084 10.3359C7.32881 9.63535 7.67617 8.76087 9.41935 8.58725L57.2145 5.0964C61.228 4.74613 63.3185 6.14416 64.888 7.36587L73.0852 13.3032C73.4356 13.4795 74.3074 14.5246 73.2589 14.5246L23.9006 17.4946L23.2895 17.5365ZM17.7936 79.3121V27.276C17.7936 25.0035 18.4913 23.9558 20.5819 23.7791L77.2723 20.4615C79.1953 20.2879 80.064 21.5093 80.064 23.7791V75.4677C80.064 77.7402 79.7133 79.6621 76.5746 79.836L22.3251 82.9796C19.1864 83.1533 17.7936 82.1085 17.7936 79.3121ZM71.3454 30.066C71.6928 31.638 71.3454 33.21 69.7729 33.3896L67.1583 33.9075V72.3267C64.888 73.5481 62.7975 74.246 61.0509 74.246C58.26 74.246 57.5619 73.3715 55.4713 70.7548L38.3728 43.8626V69.8806L43.7814 71.105C43.7814 71.105 43.7814 74.249 39.4179 74.249L27.3866 74.9465C27.0363 74.246 27.3866 72.5004 28.6061 72.1531L31.7474 71.2817V36.8808L27.387 36.5276C27.0363 34.9559 27.9077 32.6861 30.352 32.5095L43.2607 31.6414L61.0513 58.8808V34.7823L56.5168 34.2611C56.1664 32.3358 57.5619 30.9378 59.3051 30.7672L71.3454 30.066Z" fill="black"/>
</svg>
