<svg width="73" height="91" viewBox="0 0 73 91" fill="none" xmlns="http://www.w3.org/2000/svg">
<path d="M40.9584 32.125H65.4792L40.9584 7.60413V32.125ZM9.75004 0.916626H45.4167L72.1667 27.6666V81.1666C72.1667 83.5315 71.2273 85.7995 69.5551 87.4717C67.8829 89.1439 65.6149 90.0833 63.25 90.0833H9.75004C7.38519 90.0833 5.1172 89.1439 3.445 87.4717C1.77281 85.7995 0.833374 83.5315 0.833374 81.1666V9.83329C0.833374 7.46845 1.77281 5.20046 3.445 3.52826C5.1172 1.85606 7.38519 0.916626 9.75004 0.916626ZM31.7296 47.4616C33.5575 51.4741 35.8759 54.7733 38.5509 57.047L40.3788 58.4737C36.5 59.187 31.15 60.4354 25.488 62.62L24.9975 62.7983L27.2267 58.1616C29.233 54.2829 30.7042 50.7608 31.7296 47.4616ZM60.6196 64.4479C61.4221 63.6454 61.8234 62.62 61.868 61.5054C62.0017 60.6137 61.7788 59.7666 61.333 59.0533C60.04 56.9579 56.6963 55.977 51.168 55.977L45.4167 56.2891L41.538 53.7033C38.7292 51.385 36.188 47.3279 34.4046 42.29L34.583 41.6658C36.0542 35.7362 37.4363 28.5583 34.4938 25.6158C34.1339 25.2663 33.7081 24.9918 33.2413 24.8081C32.7745 24.6244 32.2758 24.5353 31.7742 24.5458H30.7042C29.0546 24.5458 27.5834 26.2845 27.1821 27.9787C25.5325 33.9083 26.5134 37.1629 28.163 42.5575V42.602C27.0484 46.5254 25.6217 51.0729 23.348 55.665L19.068 63.69L15.1 65.8745C9.75004 69.2183 7.20879 72.9633 6.71837 75.3262C6.54004 76.1733 6.62921 76.9312 6.94129 77.7337L7.07504 77.9566L9.21504 79.3387L11.1767 79.8291C14.788 79.8291 18.8896 75.5937 24.418 66.142L25.2205 65.83C29.8125 64.3587 35.5192 63.3333 43.1875 62.4862C47.7796 64.76 53.1742 65.7854 56.5625 65.7854C58.5242 65.7854 59.8617 65.295 60.6196 64.4479ZM58.7917 61.2825L59.193 61.7729C59.1484 62.2187 59.0146 62.2633 58.7917 62.3525H58.6134L57.7663 62.4416C55.7155 62.4416 52.55 61.5945 49.2955 60.1679C49.6967 59.722 49.875 59.722 50.3209 59.722C56.5625 59.722 58.3459 60.8366 58.7917 61.2825ZM17.9088 67.7916C15.0109 73.097 12.3805 76.0395 10.3742 76.7083C10.5971 75.0141 12.6034 72.0716 15.7688 69.1737L17.9088 67.7916ZM31.373 36.9845C30.3475 32.972 30.303 29.7175 31.0609 27.845L31.373 27.31L32.0417 27.5329C32.7996 28.6029 32.8888 30.0295 32.443 32.437L32.3092 33.1504L31.5959 36.8062L31.373 36.9845Z" fill="#EF5350"/>
</svg>
