<svg width="40" height="40" viewBox="0 0 40 40" fill="none" xmlns="http://www.w3.org/2000/svg">
<path d="M12.5 17.5H27.5V22.5H12.5V17.5Z" fill="#3D3D3D"/>
<path d="M15 27.5H11.9525C10.1094 27.4974 8.34254 26.764 7.03926 25.4607C5.73599 24.1575 5.00265 22.3906 5 20.5475V19.4525C5.00265 17.6094 5.73599 15.8425 7.03926 14.5393C8.34254 13.236 10.1094 12.5026 11.9525 12.5H15V7.5H11.9525C10.3828 7.49967 8.82838 7.80861 7.37809 8.40916C5.9278 9.00971 4.61003 9.89012 3.50007 11.0001C2.39012 12.11 1.50971 13.4278 0.909161 14.8781C0.308608 16.3284 -0.000328165 17.8828 2.61585e-07 19.4525V20.5475C-0.000328165 22.1172 0.308608 23.6716 0.909161 25.1219C1.50971 26.5722 2.39012 27.89 3.50007 28.9999C4.61003 30.1099 5.9278 30.9903 7.37809 31.5908C8.82838 32.1914 10.3828 32.5003 11.9525 32.5H15V27.5ZM28.0475 7.5H25V12.5H28.0475C29.8906 12.5026 31.6575 13.236 32.9607 14.5393C34.264 15.8425 34.9974 17.6094 35 19.4525V20.5475C34.9974 22.3906 34.264 24.1575 32.9607 25.4607C31.6575 26.764 29.8906 27.4974 28.0475 27.5H25V32.5H28.0475C29.6172 32.5003 31.1716 32.1914 32.6219 31.5908C34.0722 30.9903 35.39 30.1099 36.4999 28.9999C37.6099 27.89 38.4903 26.5722 39.0908 25.1219C39.6914 23.6716 40.0003 22.1172 40 20.5475V19.4525C40.0003 17.8828 39.6914 16.3284 39.0908 14.8781C38.4903 13.4278 37.6099 12.11 36.4999 11.0001C35.39 9.89012 34.0722 9.00971 32.6219 8.40916C31.1716 7.80861 29.6172 7.49967 28.0475 7.5Z" fill="#3D3D3D"/>
</svg>
